REM DIRINDEX 1\2\4\18,1\2\4\19,1\2\5\20,1\2\5\21,1\2\6\22,1\2\6\23,1\2\7\24,1\2\8\25,1\2\9\26,1\2\10\27,1\2\10\28,1\3\11\29,1\3\11\30,1\3\11\31,1\3\11\32,1\3\12\33,1\3\12\34,1\3\12\35,1\3\12\36,1\3\13\37,1\3\13\38,1\3\13\39,1\3\13\40,1\3\14\41,1\3\14\42,1\3\15\43,1\3\15\44,1\3\16\45,1\3\16\46,1\3\17\47,1\3\17\48,1\3\17\49,1\3\17\50
REM DIRNAME cjc135,folder01,folder02,folder03,folder04,folder05,folder06,folder07,folder08,folder09,folder10,folder11,folder12,folder13,folder14,folder15,folder16,folder17,folder18,folder19,folder20,folder21,folder22,folder23,folder24,folder25,folder26,folder27,folder28,folder29,folder30,folder31,folder32,folder33,folder34,folder35,folder36,folder37,folder38,folder39,folder40,folder41,folder42,folder43,folder44,folder45,folder46,folder47,folder48,folder49
TITLE ""
FILE "02.mp3" MP3
  TRACK 01 AUDIO
    TITLE "0:"
    INDEX 01 00:00:00
  TRACK 02 AUDIO
    TITLE "29:cjc135_2954"
    INDEX 01 00:00:15
  TRACK 03 AUDIO
    TITLE "0:"
    INDEX 01 00:01:09
  TRACK 04 AUDIO
    TITLE "30:cjc135_2955"
    INDEX 01 00:01:60
  TRACK 05 AUDIO
    TITLE "0:"
    INDEX 01 00:03:33
  TRACK 06 AUDIO
    TITLE "31:cjc135_2956"
    INDEX 01 00:03:57
  TRACK 07 AUDIO
    TITLE "0:"
    INDEX 01 00:05:22
  TRACK 08 AUDIO
    TITLE "32:cjc135_2957"
    INDEX 01 00:05:48
  TRACK 09 AUDIO
    TITLE "0:"
    INDEX 01 00:07:11
  TRACK 10 AUDIO
    TITLE "29:cjc135_2958"
    INDEX 01 00:08:13
  TRACK 11 AUDIO
    TITLE "0:"
    INDEX 01 00:09:22
  TRACK 12 AUDIO
    TITLE "30:cjc135_2959"
    INDEX 01 00:09:69
  TRACK 13 AUDIO
    TITLE "0:"
    INDEX 01 00:12:34
  TRACK 14 AUDIO
    TITLE "31:cjc135_2960"
    INDEX 01 00:12:58
  TRACK 15 AUDIO
    TITLE "0:"
    INDEX 01 00:15:36
  TRACK 16 AUDIO
    TITLE "32:cjc135_2961"
    INDEX 01 00:15:60
  TRACK 17 AUDIO
    TITLE "0:"
    INDEX 01 00:18:37
  TRACK 18 AUDIO
    TITLE "29:cjc135_2962"
    INDEX 01 00:19:38
  TRACK 19 AUDIO
    TITLE "0:"
    INDEX 01 00:20:53
  TRACK 20 AUDIO
    TITLE "30:cjc135_2963"
    INDEX 01 00:21:29
  TRACK 21 AUDIO
    TITLE "0:"
    INDEX 01 00:23:20
  TRACK 22 AUDIO
    TITLE "31:cjc135_2964"
    INDEX 01 00:23:46
  TRACK 23 AUDIO
    TITLE "0:"
    INDEX 01 00:25:15
  TRACK 24 AUDIO
    TITLE "32:cjc135_2965"
    INDEX 01 00:25:41
  TRACK 25 AUDIO
    TITLE "0:"
    INDEX 01 00:27:10
  TRACK 26 AUDIO
    TITLE "29:cjc135_2966"
    INDEX 01 00:28:10
  TRACK 27 AUDIO
    TITLE "0:"
    INDEX 01 00:29:17
  TRACK 28 AUDIO
    TITLE "30:cjc135_2967"
    INDEX 01 00:29:70
  TRACK 29 AUDIO
    TITLE "0:"
    INDEX 01 00:32:01
  TRACK 30 AUDIO
    TITLE "31:cjc135_2968"
    INDEX 01 00:32:25
  TRACK 31 AUDIO
    TITLE "0:"
    INDEX 01 00:34:22
  TRACK 32 AUDIO
    TITLE "32:cjc135_2969"
    INDEX 01 00:34:47
  TRACK 33 AUDIO
    TITLE "0:"
    INDEX 01 00:36:44
  TRACK 34 AUDIO
    TITLE "29:cjc135_2970"
    INDEX 01 00:37:44
  TRACK 35 AUDIO
    TITLE "0:"
    INDEX 01 00:38:51
  TRACK 36 AUDIO
    TITLE "30:cjc135_2971"
    INDEX 01 00:39:25
  TRACK 37 AUDIO
    TITLE "0:"
    INDEX 01 00:41:36
  TRACK 38 AUDIO
    TITLE "31:cjc135_2972"
    INDEX 01 00:41:63
  TRACK 39 AUDIO
    TITLE "0:"
    INDEX 01 00:43:60
  TRACK 40 AUDIO
    TITLE "32:cjc135_2973"
    INDEX 01 00:44:11
  TRACK 41 AUDIO
    TITLE "0:"
    INDEX 01 00:46:07
  TRACK 42 AUDIO
    TITLE "29:cjc135_2974"
    INDEX 01 00:47:07
  TRACK 43 AUDIO
    TITLE "0:"
    INDEX 01 00:48:14
  TRACK 44 AUDIO
    TITLE "30:cjc135_2975"
    INDEX 01 00:48:65
  TRACK 45 AUDIO
    TITLE "0:"
    INDEX 01 00:51:32
  TRACK 46 AUDIO
    TITLE "31:cjc135_2976"
    INDEX 01 00:51:58
  TRACK 47 AUDIO
    TITLE "0:"
    INDEX 01 00:53:53
  TRACK 48 AUDIO
    TITLE "32:cjc135_2977"
    INDEX 01 00:54:05
  TRACK 49 AUDIO
    TITLE "0:"
    INDEX 01 00:56:02
  TRACK 50 AUDIO
    TITLE "29:cjc135_2978"
    INDEX 01 00:57:01
  TRACK 51 AUDIO
    TITLE "0:"
    INDEX 01 00:58:09
  TRACK 52 AUDIO
    TITLE "30:cjc135_2979"
    INDEX 01 00:58:60
  TRACK 53 AUDIO
    TITLE "0:"
    INDEX 01 01:01:17
  TRACK 54 AUDIO
    TITLE "31:cjc135_2980"
    INDEX 01 01:01:42
  TRACK 55 AUDIO
    TITLE "0:"
    INDEX 01 01:03:51
  TRACK 56 AUDIO
    TITLE "32:cjc135_2981"
    INDEX 01 01:04:00
  TRACK 57 AUDIO
    TITLE "0:"
    INDEX 01 01:06:08
  TRACK 58 AUDIO
    TITLE "29:cjc135_2982"
    INDEX 01 01:07:08
  TRACK 59 AUDIO
    TITLE "0:"
    INDEX 01 01:08:09
  TRACK 60 AUDIO
    TITLE "30:cjc135_2983"
    INDEX 01 01:08:60
  TRACK 61 AUDIO
    TITLE "0:"
    INDEX 01 01:11:54
  TRACK 62 AUDIO
    TITLE "31:cjc135_2984"
    INDEX 01 01:12:03
  TRACK 63 AUDIO
    TITLE "0:"
    INDEX 01 01:14:53
  TRACK 64 AUDIO
    TITLE "32:cjc135_2985"
    INDEX 01 01:15:05
  TRACK 65 AUDIO
    TITLE "0:"
    INDEX 01 01:17:57
  TRACK 66 AUDIO
    TITLE "29:cjc135_2986"
    INDEX 01 01:18:56
  TRACK 67 AUDIO
    TITLE "0:"
    INDEX 01 01:19:54
  TRACK 68 AUDIO
    TITLE "30:cjc135_2987"
    INDEX 01 01:20:30
  TRACK 69 AUDIO
    TITLE "0:"
    INDEX 01 01:22:42
  TRACK 70 AUDIO
    TITLE "31:cjc135_2988"
    INDEX 01 01:22:68
  TRACK 71 AUDIO
    TITLE "0:"
    INDEX 01 01:24:53
  TRACK 72 AUDIO
    TITLE "32:cjc135_2989"
    INDEX 01 01:25:02
  TRACK 73 AUDIO
    TITLE "0:"
    INDEX 01 01:26:62
  TRACK 74 AUDIO
    TITLE "29:cjc135_2990"
    INDEX 01 01:27:63
  TRACK 75 AUDIO
    TITLE "0:"
    INDEX 01 01:28:71
  TRACK 76 AUDIO
    TITLE "30:cjc135_2991"
    INDEX 01 01:29:45
  TRACK 77 AUDIO
    TITLE "0:"
    INDEX 01 01:31:59
  TRACK 78 AUDIO
    TITLE "31:cjc135_2992"
    INDEX 01 01:32:12
  TRACK 79 AUDIO
    TITLE "0:"
    INDEX 01 01:33:70
  TRACK 80 AUDIO
    TITLE "32:cjc135_2993"
    INDEX 01 01:34:20
  TRACK 81 AUDIO
    TITLE "0:"
    INDEX 01 01:36:03
  TRACK 82 AUDIO
    TITLE "29:cjc135_2994"
    INDEX 01 01:37:03
  TRACK 83 AUDIO
    TITLE "0:"
    INDEX 01 01:38:04
  TRACK 84 AUDIO
    TITLE "30:cjc135_2995"
    INDEX 01 01:38:55
  TRACK 85 AUDIO
    TITLE "0:"
    INDEX 01 01:41:44
  TRACK 86 AUDIO
    TITLE "31:cjc135_2996"
    INDEX 01 01:41:69
  TRACK 87 AUDIO
    TITLE "0:"
    INDEX 01 01:44:07
  TRACK 88 AUDIO
    TITLE "32:cjc135_2997"
    INDEX 01 01:44:32
  TRACK 89 AUDIO
    TITLE "0:"
    INDEX 01 01:46:45
  TRACK 90 AUDIO
    TITLE "29:cjc135_2998"
    INDEX 01 01:47:44
  TRACK 91 AUDIO
    TITLE "0:"
    INDEX 01 01:48:54
  TRACK 92 AUDIO
    TITLE "30:cjc135_2999"
    INDEX 01 01:49:30
  TRACK 93 AUDIO
    TITLE "0:"
    INDEX 01 01:51:56
  TRACK 94 AUDIO
    TITLE "31:cjc135_3000"
    INDEX 01 01:52:06
  TRACK 95 AUDIO
    TITLE "0:"
    INDEX 01 01:54:35
  TRACK 96 AUDIO
    TITLE "32:cjc135_3001"
    INDEX 01 01:54:60
  TRACK 97 AUDIO
    TITLE "0:"
    INDEX 01 01:57:13
  TRACK 98 AUDIO
    TITLE "29:cjc135_3002"
    INDEX 01 01:58:13
  TRACK 99 AUDIO
    TITLE "0:"
    INDEX 01 01:59:22
  TRACK 100 AUDIO
    TITLE "30:cjc135_3003"
    INDEX 01 01:59:71
  TRACK 101 AUDIO
    TITLE "0:"
    INDEX 01 02:03:12
  TRACK 102 AUDIO
    TITLE "31:cjc135_3004"
    INDEX 01 02:03:39
  TRACK 103 AUDIO
    TITLE "0:"
    INDEX 01 02:05:52
  TRACK 104 AUDIO
    TITLE "32:cjc135_3005"
    INDEX 01 02:06:03
  TRACK 105 AUDIO
    TITLE "0:"
    INDEX 01 02:08:15
  TRACK 106 AUDIO
    TITLE "29:cjc135_3006"
    INDEX 01 02:09:15
  TRACK 107 AUDIO
    TITLE "0:"
    INDEX 01 02:10:20
  TRACK 108 AUDIO
    TITLE "30:cjc135_3007"
    INDEX 01 02:10:67
  TRACK 109 AUDIO
    TITLE "0:"
    INDEX 01 02:13:56
  TRACK 110 AUDIO
    TITLE "31:cjc135_3008"
    INDEX 01 02:14:04
  TRACK 111 AUDIO
    TITLE "0:"
    INDEX 01 02:16:66
  TRACK 112 AUDIO
    TITLE "32:cjc135_3009"
    INDEX 01 02:17:18
  TRACK 113 AUDIO
    TITLE "0:"
    INDEX 01 02:20:03
  TRACK 114 AUDIO
    TITLE "29:cjc135_3010"
    INDEX 01 02:21:04
  TRACK 115 AUDIO
    TITLE "0:"
    INDEX 01 02:22:15
  TRACK 116 AUDIO
    TITLE "30:cjc135_3011"
    INDEX 01 02:22:64
  TRACK 117 AUDIO
    TITLE "0:"
    INDEX 01 02:25:18
  TRACK 118 AUDIO
    TITLE "31:cjc135_3012"
    INDEX 01 02:25:43
  TRACK 119 AUDIO
    TITLE "0:"
    INDEX 01 02:27:54
  TRACK 120 AUDIO
    TITLE "32:cjc135_3013"
    INDEX 01 02:28:08
  TRACK 121 AUDIO
    TITLE "0:"
    INDEX 01 02:30:19
  TRACK 122 AUDIO
    TITLE "29:cjc135_3014"
    INDEX 01 02:31:18
  TRACK 123 AUDIO
    TITLE "0:"
    INDEX 01 02:32:16
  TRACK 124 AUDIO
    TITLE "30:cjc135_3015"
    INDEX 01 02:32:67
  TRACK 125 AUDIO
    TITLE "0:"
    INDEX 01 02:35:30
  TRACK 126 AUDIO
    TITLE "31:cjc135_3016"
    INDEX 01 02:35:57
  TRACK 127 AUDIO
    TITLE "0:"
    INDEX 01 02:37:34
  TRACK 128 AUDIO
    TITLE "32:cjc135_3017"
    INDEX 01 02:37:60
  TRACK 129 AUDIO
    TITLE "0:"
    INDEX 01 02:39:37
  TRACK 130 AUDIO
    TITLE "29:cjc135_3018"
    INDEX 01 02:40:37
  TRACK 131 AUDIO
    TITLE "0:"
    INDEX 01 02:41:44
  TRACK 132 AUDIO
    TITLE "30:cjc135_3019"
    INDEX 01 02:42:18
  TRACK 133 AUDIO
    TITLE "0:"
    INDEX 01 02:45:42
  TRACK 134 AUDIO
    TITLE "31:cjc135_3020"
    INDEX 01 02:45:69
  TRACK 135 AUDIO
    TITLE "0:"
    INDEX 01 02:48:15
  TRACK 136 AUDIO
    TITLE "32:cjc135_3021"
    INDEX 01 02:48:42
  TRACK 137 AUDIO
    TITLE "0:"
    INDEX 01 02:50:65
  TRACK 138 AUDIO
    TITLE "29:cjc135_3022"
    INDEX 01 02:51:64
  TRACK 139 AUDIO
    TITLE "0:"
    INDEX 01 02:53:04
  TRACK 140 AUDIO
    TITLE "30:cjc135_3023"
    INDEX 01 02:53:53
  TRACK 141 AUDIO
    TITLE "0:"
    INDEX 01 02:57:02
  TRACK 142 AUDIO
    TITLE "31:cjc135_3024"
    INDEX 01 02:57:29
  TRACK 143 AUDIO
    TITLE "0:"
    INDEX 01 03:00:36
  TRACK 144 AUDIO
    TITLE "32:cjc135_3025"
    INDEX 01 03:00:59
  TRACK 145 AUDIO
    TITLE "0:"
    INDEX 01 03:03:65
  TRACK 146 AUDIO
    TITLE "29:cjc135_3026"
    INDEX 01 03:04:65
  TRACK 147 AUDIO
    TITLE "0:"
    INDEX 01 03:05:72
  TRACK 148 AUDIO
    TITLE "30:cjc135_3027"
    INDEX 01 03:06:44
  TRACK 149 AUDIO
    TITLE "0:"
    INDEX 01 03:08:10
  TRACK 150 AUDIO
    TITLE "31:cjc135_3028"
    INDEX 01 03:08:35
  TRACK 151 AUDIO
    TITLE "0:"
    INDEX 01 03:10:08
  TRACK 152 AUDIO
    TITLE "32:cjc135_3029"
    INDEX 01 03:10:32
  TRACK 153 AUDIO
    TITLE "0:"
    INDEX 01 03:12:05
  TRACK 154 AUDIO
    TITLE "29:cjc135_3030"
    INDEX 01 03:13:05
  TRACK 155 AUDIO
    TITLE "0:"
    INDEX 01 03:14:00
  TRACK 156 AUDIO
    TITLE "30:cjc135_3031"
    INDEX 01 03:14:53
  TRACK 157 AUDIO
    TITLE "0:"
    INDEX 01 03:16:68
  TRACK 158 AUDIO
    TITLE "31:cjc135_3032"
    INDEX 01 03:17:20
  TRACK 159 AUDIO
    TITLE "0:"
    INDEX 01 03:19:25
  TRACK 160 AUDIO
    TITLE "32:cjc135_3033"
    INDEX 01 03:19:51
  TRACK 161 AUDIO
    TITLE "0:"
    INDEX 01 03:21:55
  TRACK 162 AUDIO
    TITLE "29:cjc135_3034"
    INDEX 01 03:22:55
  TRACK 163 AUDIO
    TITLE "0:"
    INDEX 01 03:23:56
  TRACK 164 AUDIO
    TITLE "30:cjc135_3035"
    INDEX 01 03:24:32
  TRACK 165 AUDIO
    TITLE "0:"
    INDEX 01 03:26:45
  TRACK 166 AUDIO
    TITLE "31:cjc135_3036"
    INDEX 01 03:26:70
  TRACK 167 AUDIO
    TITLE "0:"
    INDEX 01 03:28:63
  TRACK 168 AUDIO
    TITLE "32:cjc135_3037"
    INDEX 01 03:29:12
  TRACK 169 AUDIO
    TITLE "0:"
    INDEX 01 03:31:03
  TRACK 170 AUDIO
    TITLE "29:cjc135_3038"
    INDEX 01 03:32:04
  TRACK 171 AUDIO
    TITLE "0:"
    INDEX 01 03:33:09
  TRACK 172 AUDIO
    TITLE "30:cjc135_3039"
    INDEX 01 03:33:60
  TRACK 173 AUDIO
    TITLE "0:"
    INDEX 01 03:36:29
  TRACK 174 AUDIO
    TITLE "31:cjc135_3040"
    INDEX 01 03:36:57
  TRACK 175 AUDIO
    TITLE "0:"
    INDEX 01 03:38:69
  TRACK 176 AUDIO
    TITLE "32:cjc135_3041"
    INDEX 01 03:39:18
  TRACK 177 AUDIO
    TITLE "0:"
    INDEX 01 03:41:29
  TRACK 178 AUDIO
    TITLE "29:cjc135_3042"
    INDEX 01 03:42:28
  TRACK 179 AUDIO
    TITLE "0:"
    INDEX 01 03:43:27
  TRACK 180 AUDIO
    TITLE "30:cjc135_3043"
    INDEX 01 03:44:01
  TRACK 181 AUDIO
    TITLE "0:"
    INDEX 01 03:46:30
  TRACK 182 AUDIO
    TITLE "31:cjc135_3044"
    INDEX 01 03:46:59
  TRACK 183 AUDIO
    TITLE "0:"
    INDEX 01 03:49:05
  TRACK 184 AUDIO
    TITLE "32:cjc135_3045"
    INDEX 01 03:49:30
  TRACK 185 AUDIO
    TITLE "0:"
    INDEX 01 03:51:51
  TRACK 186 AUDIO
    TITLE "29:cjc135_3046"
    INDEX 01 03:52:50
  TRACK 187 AUDIO
    TITLE "0:"
    INDEX 01 03:53:61
  TRACK 188 AUDIO
    TITLE "30:cjc135_3047"
    INDEX 01 03:54:37
  TRACK 189 AUDIO
    TITLE "0:"
    INDEX 01 03:56:18
  TRACK 190 AUDIO
    TITLE "31:cjc135_3048"
    INDEX 01 03:56:42
  TRACK 191 AUDIO
    TITLE "0:"
    INDEX 01 03:58:35
  TRACK 192 AUDIO
    TITLE "32:cjc135_3049"
    INDEX 01 03:58:62
  TRACK 193 AUDIO
    TITLE "0:"
    INDEX 01 04:00:57
  TRACK 194 AUDIO
    TITLE "29:cjc135_3050"
    INDEX 01 04:01:57
  TRACK 195 AUDIO
    TITLE "0:"
    INDEX 01 04:02:72
  TRACK 196 AUDIO
    TITLE "30:cjc135_3051"
    INDEX 01 04:03:48
  TRACK 197 AUDIO
    TITLE "0:"
    INDEX 01 04:05:53
  TRACK 198 AUDIO
    TITLE "31:cjc135_3052"
    INDEX 01 04:06:03
  TRACK 199 AUDIO
    TITLE "0:"
    INDEX 01 04:08:02
  TRACK 200 AUDIO
    TITLE "32:cjc135_3053"
    INDEX 01 04:08:27
  TRACK 201 AUDIO
    TITLE "0:"
    INDEX 01 04:10:26
  TRACK 202 AUDIO
    TITLE "29:cjc135_3054"
    INDEX 01 04:11:28
  TRACK 203 AUDIO
    TITLE "0:"
    INDEX 01 04:12:33
  TRACK 204 AUDIO
    TITLE "30:cjc135_3055"
    INDEX 01 04:13:07
  TRACK 205 AUDIO
    TITLE "0:"
    INDEX 01 04:16:15
  TRACK 206 AUDIO
    TITLE "31:cjc135_3056"
    INDEX 01 04:16:41
  TRACK 207 AUDIO
    TITLE "0:"
    INDEX 01 04:19:12
  TRACK 208 AUDIO
    TITLE "32:cjc135_3057"
    INDEX 01 04:19:35
  TRACK 209 AUDIO
    TITLE "0:"
    INDEX 01 04:22:06
  TRACK 210 AUDIO
    TITLE "29:cjc135_3058"
    INDEX 01 04:23:05
  TRACK 211 AUDIO
    TITLE "0:"
    INDEX 01 04:24:13
  TRACK 212 AUDIO
    TITLE "30:cjc135_3059"
    INDEX 01 04:24:62
  TRACK 213 AUDIO
    TITLE "0:"
    INDEX 01 04:26:51
  TRACK 214 AUDIO
    TITLE "31:cjc135_3060"
    INDEX 01 04:26:74
  TRACK 215 AUDIO
    TITLE "0:"
    INDEX 01 04:28:63
  TRACK 216 AUDIO
    TITLE "32:cjc135_3061"
    INDEX 01 04:29:12
  TRACK 217 AUDIO
    TITLE "0:"
    INDEX 01 04:31:01
  TRACK 218 AUDIO
    TITLE "29:cjc135_3062"
    INDEX 01 04:32:00
  TRACK 219 AUDIO
    TITLE "0:"
    INDEX 01 04:33:18
  TRACK 220 AUDIO
    TITLE "30:cjc135_3063"
    INDEX 01 04:33:67
  TRACK 221 AUDIO
    TITLE "0:"
    INDEX 01 04:35:69
  TRACK 222 AUDIO
    TITLE "31:cjc135_3064"
    INDEX 01 04:36:22
  TRACK 223 AUDIO
    TITLE "0:"
    INDEX 01 04:38:15
  TRACK 224 AUDIO
    TITLE "32:cjc135_3065"
    INDEX 01 04:38:42
  TRACK 225 AUDIO
    TITLE "0:"
    INDEX 01 04:40:37
  TRACK 226 AUDIO
    TITLE "29:cjc135_3066"
    INDEX 01 04:41:37
  TRACK 227 AUDIO
    TITLE "0:"
    INDEX 01 04:42:30
  TRACK 228 AUDIO
    TITLE "30:cjc135_3067"
    INDEX 01 04:43:04
  TRACK 229 AUDIO
    TITLE "0:"
    INDEX 01 04:46:10
  TRACK 230 AUDIO
    TITLE "31:cjc135_3068"
    INDEX 01 04:46:36
  TRACK 231 AUDIO
    TITLE "0:"
    INDEX 01 04:49:22
  TRACK 232 AUDIO
    TITLE "32:cjc135_3069"
    INDEX 01 04:49:48
  TRACK 233 AUDIO
    TITLE "0:"
    INDEX 01 04:52:35
  TRACK 234 AUDIO
    TITLE "29:cjc135_3070"
    INDEX 01 04:53:34
  TRACK 235 AUDIO
    TITLE "0:"
    INDEX 01 04:54:43
  TRACK 236 AUDIO
    TITLE "30:cjc135_3071"
    INDEX 01 04:55:17
  TRACK 237 AUDIO
    TITLE "0:"
    INDEX 01 04:58:63
  TRACK 238 AUDIO
    TITLE "31:cjc135_3072"
    INDEX 01 04:59:13
  TRACK 239 AUDIO
    TITLE "0:"
    INDEX 01 05:01:57
  TRACK 240 AUDIO
    TITLE "32:cjc135_3073"
    INDEX 01 05:02:06
  TRACK 241 AUDIO
    TITLE "0:"
    INDEX 01 05:04:49
  TRACK 242 AUDIO
    TITLE "29:cjc135_3074"
    INDEX 01 05:05:47
  TRACK 243 AUDIO
    TITLE "0:"
    INDEX 01 05:06:48
  TRACK 244 AUDIO
    TITLE "30:cjc135_3075"
    INDEX 01 05:07:22
  TRACK 245 AUDIO
    TITLE "0:"
    INDEX 01 05:10:44
  TRACK 246 AUDIO
    TITLE "31:cjc135_3076"
    INDEX 01 05:10:68
  TRACK 247 AUDIO
    TITLE "0:"
    INDEX 01 05:12:61
  TRACK 248 AUDIO
    TITLE "32:cjc135_3077"
    INDEX 01 05:13:11
  TRACK 249 AUDIO
    TITLE "0:"
    INDEX 01 05:15:08
  TRACK 250 AUDIO
    TITLE "29:cjc135_3078"
    INDEX 01 05:16:08
  TRACK 251 AUDIO
    TITLE "0:"
    INDEX 01 05:16:74
  TRACK 252 AUDIO
    TITLE "30:cjc135_3079"
    INDEX 01 05:17:46
  TRACK 253 AUDIO
    TITLE "0:"
    INDEX 01 05:19:67
  TRACK 254 AUDIO
    TITLE "31:cjc135_3080"
    INDEX 01 05:20:13
  TRACK 255 AUDIO
    TITLE "0:"
    INDEX 01 05:21:48
  TRACK 256 AUDIO
    TITLE "32:cjc135_3081"
    INDEX 01 05:21:68
  TRACK 257 AUDIO
    TITLE "0:"
    INDEX 01 05:23:27
  TRACK 258 AUDIO
    TITLE "29:cjc135_3082"
    INDEX 01 05:24:27
  TRACK 259 AUDIO
    TITLE "0:"
    INDEX 01 05:25:38
  TRACK 260 AUDIO
    TITLE "30:cjc135_3083"
    INDEX 01 05:26:12
  TRACK 261 AUDIO
    TITLE "0:"
    INDEX 01 05:28:23
  TRACK 262 AUDIO
    TITLE "31:cjc135_3084"
    INDEX 01 05:28:48
  TRACK 263 AUDIO
    TITLE "0:"
    INDEX 01 05:30:43
  TRACK 264 AUDIO
    TITLE "32:cjc135_3085"
    INDEX 01 05:30:66
  TRACK 265 AUDIO
    TITLE "0:"
    INDEX 01 05:32:63
  TRACK 266 AUDIO
    TITLE "29:cjc135_3086"
    INDEX 01 05:33:63
  TRACK 267 AUDIO
    TITLE "0:"
    INDEX 01 05:34:74
  TRACK 268 AUDIO
    TITLE "30:cjc135_3087"
    INDEX 01 05:35:52
  TRACK 269 AUDIO
    TITLE "0:"
    INDEX 01 05:38:72
  TRACK 270 AUDIO
    TITLE "31:cjc135_3088"
    INDEX 01 05:39:22
  TRACK 271 AUDIO
    TITLE "0:"
    INDEX 01 05:41:25
  TRACK 272 AUDIO
    TITLE "32:cjc135_3089"
    INDEX 01 05:41:47
  TRACK 273 AUDIO
    TITLE "0:"
    INDEX 01 05:43:50
  TRACK 274 AUDIO
    TITLE "29:cjc135_3090"
    INDEX 01 05:44:47
  TRACK 275 AUDIO
    TITLE "0:"
    INDEX 01 05:45:52
  TRACK 276 AUDIO
    TITLE "30:cjc135_3091"
    INDEX 01 05:46:26
  TRACK 277 AUDIO
    TITLE "0:"
    INDEX 01 05:48:06
  TRACK 278 AUDIO
    TITLE "31:cjc135_3092"
    INDEX 01 05:48:29
  TRACK 279 AUDIO
    TITLE "0:"
    INDEX 01 05:49:68
  TRACK 280 AUDIO
    TITLE "32:cjc135_3093"
    INDEX 01 05:50:20
  TRACK 281 AUDIO
    TITLE "0:"
    INDEX 01 05:51:59
  TRACK 282 AUDIO
    TITLE "29:cjc135_3094"
    INDEX 01 05:52:60
  TRACK 283 AUDIO
    TITLE "0:"
    INDEX 01 05:53:60
  TRACK 284 AUDIO
    TITLE "30:cjc135_3095"
    INDEX 01 05:54:36
  TRACK 285 AUDIO
    TITLE "0:"
    INDEX 01 05:56:07
  TRACK 286 AUDIO
    TITLE "31:cjc135_3096"
    INDEX 01 05:56:33
  TRACK 287 AUDIO
    TITLE "0:"
    INDEX 01 05:57:67
  TRACK 288 AUDIO
    TITLE "32:cjc135_3097"
    INDEX 01 05:58:18
  TRACK 289 AUDIO
    TITLE "0:"
    INDEX 01 05:59:52
  TRACK 290 AUDIO
    TITLE "29:cjc135_3098"
    INDEX 01 06:00:52
  TRACK 291 AUDIO
    TITLE "0:"
    INDEX 01 06:01:59
  TRACK 292 AUDIO
    TITLE "30:cjc135_3099"
    INDEX 01 06:02:31
  TRACK 293 AUDIO
    TITLE "0:"
    INDEX 01 06:05:14
  TRACK 294 AUDIO
    TITLE "31:cjc135_3100"
    INDEX 01 06:05:39
  TRACK 295 AUDIO
    TITLE "0:"
    INDEX 01 06:08:02
  TRACK 296 AUDIO
    TITLE "32:cjc135_3101"
    INDEX 01 06:08:26
  TRACK 297 AUDIO
    TITLE "0:"
    INDEX 01 06:10:64
  TRACK 298 AUDIO
    TITLE "29:cjc135_3102"
    INDEX 01 06:11:63
  TRACK 299 AUDIO
    TITLE "0:"
    INDEX 01 06:12:57
  TRACK 300 AUDIO
    TITLE "30:cjc135_3103"
    INDEX 01 06:13:33
  TRACK 301 AUDIO
    TITLE "0:"
    INDEX 01 06:16:57
  TRACK 302 AUDIO
    TITLE "31:cjc135_3104"
    INDEX 01 06:17:07
  TRACK 303 AUDIO
    TITLE "0:"
    INDEX 01 06:19:39
  TRACK 304 AUDIO
    TITLE "32:cjc135_3105"
    INDEX 01 06:19:65
  TRACK 305 AUDIO
    TITLE "0:"
    INDEX 01 06:22:22
  TRACK 306 AUDIO
    TITLE "29:cjc135_3106"
    INDEX 01 06:23:22
  TRACK 307 AUDIO
    TITLE "0:"
    INDEX 01 06:24:31
  TRACK 308 AUDIO
    TITLE "30:cjc135_3107"
    INDEX 01 06:25:05
  TRACK 309 AUDIO
    TITLE "0:"
    INDEX 01 06:27:72
  TRACK 310 AUDIO
    TITLE "31:cjc135_3108"
    INDEX 01 06:28:23
  TRACK 311 AUDIO
    TITLE "0:"
    INDEX 01 06:30:73
  TRACK 312 AUDIO
    TITLE "32:cjc135_3109"
    INDEX 01 06:31:23
  TRACK 313 AUDIO
    TITLE "0:"
    INDEX 01 06:33:73
  TRACK 314 AUDIO
    TITLE "29:cjc135_3110"
    INDEX 01 06:34:72
  TRACK 315 AUDIO
    TITLE "0:"
    INDEX 01 06:36:16
  TRACK 316 AUDIO
    TITLE "30:cjc135_3111"
    INDEX 01 06:36:67
  TRACK 317 AUDIO
    TITLE "0:"
    INDEX 01 06:39:68
  TRACK 318 AUDIO
    TITLE "31:cjc135_3112"
    INDEX 01 06:40:14
  TRACK 319 AUDIO
    TITLE "0:"
    INDEX 01 06:42:41
  TRACK 320 AUDIO
    TITLE "32:cjc135_3113"
    INDEX 01 06:42:64
  TRACK 321 AUDIO
    TITLE "0:"
    INDEX 01 06:45:15
  TRACK 322 AUDIO
    TITLE "29:cjc135_3114"
    INDEX 01 06:46:15
  TRACK 323 AUDIO
    TITLE "0:"
    INDEX 01 06:47:24
  TRACK 324 AUDIO
    TITLE "30:cjc135_3115"
    INDEX 01 06:47:73
  TRACK 325 AUDIO
    TITLE "0:"
    INDEX 01 06:49:50
  TRACK 326 AUDIO
    TITLE "31:cjc135_3116"
    INDEX 01 06:50:03
  TRACK 327 AUDIO
    TITLE "0:"
    INDEX 01 06:51:45
  TRACK 328 AUDIO
    TITLE "32:cjc135_3117"
    INDEX 01 06:51:69
  TRACK 329 AUDIO
    TITLE "0:"
    INDEX 01 06:53:38
  TRACK 330 AUDIO
    TITLE "29:cjc135_3118"
    INDEX 01 06:54:38
  TRACK 331 AUDIO
    TITLE "0:"
    INDEX 01 06:55:43
  TRACK 332 AUDIO
    TITLE "30:cjc135_3119"
    INDEX 01 06:56:19
  TRACK 333 AUDIO
    TITLE "0:"
    INDEX 01 06:58:04
  TRACK 334 AUDIO
    TITLE "31:cjc135_3120"
    INDEX 01 06:58:30
  TRACK 335 AUDIO
    TITLE "0:"
    INDEX 01 07:00:07
  TRACK 336 AUDIO
    TITLE "32:cjc135_3121"
    INDEX 01 07:00:31
  TRACK 337 AUDIO
    TITLE "0:"
    INDEX 01 07:02:06
  TRACK 338 AUDIO
    TITLE "29:cjc135_3122"
    INDEX 01 07:03:05
  TRACK 339 AUDIO
    TITLE "0:"
    INDEX 01 07:04:15
  TRACK 340 AUDIO
    TITLE "30:cjc135_3123"
    INDEX 01 07:04:66
  TRACK 341 AUDIO
    TITLE "0:"
    INDEX 01 07:07:70
  TRACK 342 AUDIO
    TITLE "31:cjc135_3124"
    INDEX 01 07:08:20
  TRACK 343 AUDIO
    TITLE "0:"
    INDEX 01 07:10:51
  TRACK 344 AUDIO
    TITLE "32:cjc135_3125"
    INDEX 01 07:10:74
  TRACK 345 AUDIO
    TITLE "0:"
    INDEX 01 07:13:29
  TRACK 346 AUDIO
    TITLE "29:cjc135_3126"
    INDEX 01 07:14:29
  TRACK 347 AUDIO
    TITLE "0:"
    INDEX 01 07:15:44
  TRACK 348 AUDIO
    TITLE "30:cjc135_3127"
    INDEX 01 07:16:20
  TRACK 349 AUDIO
    TITLE "0:"
    INDEX 01 07:18:03
  TRACK 350 AUDIO
    TITLE "31:cjc135_3128"
    INDEX 01 07:18:27
  TRACK 351 AUDIO
    TITLE "0:"
    INDEX 01 07:20:18
  TRACK 352 AUDIO
    TITLE "32:cjc135_3129"
    INDEX 01 07:20:39
  TRACK 353 AUDIO
    TITLE "0:"
    INDEX 01 07:22:30
  TRACK 354 AUDIO
    TITLE "29:cjc135_3130"
    INDEX 01 07:23:28
  TRACK 355 AUDIO
    TITLE "0:"
    INDEX 01 07:24:31
  TRACK 356 AUDIO
    TITLE "30:cjc135_3131"
    INDEX 01 07:25:05
  TRACK 357 AUDIO
    TITLE "0:"
    INDEX 01 07:27:31
  TRACK 358 AUDIO
    TITLE "31:cjc135_3132"
    INDEX 01 07:27:55
  TRACK 359 AUDIO
    TITLE "0:"
    INDEX 01 07:29:73
  TRACK 360 AUDIO
    TITLE "32:cjc135_3133"
    INDEX 01 07:30:22
  TRACK 361 AUDIO
    TITLE "0:"
    INDEX 01 07:32:40
  TRACK 362 AUDIO
    TITLE "29:cjc135_3134"
    INDEX 01 07:33:40
  TRACK 363 AUDIO
    TITLE "0:"
    INDEX 01 07:34:49
  TRACK 364 AUDIO
    TITLE "30:cjc135_3135"
    INDEX 01 07:35:23
  TRACK 365 AUDIO
    TITLE "0:"
    INDEX 01 07:38:00
  TRACK 366 AUDIO
    TITLE "31:cjc135_3136"
    INDEX 01 07:38:25
  TRACK 367 AUDIO
    TITLE "0:"
    INDEX 01 07:40:20
  TRACK 368 AUDIO
    TITLE "32:cjc135_3137"
    INDEX 01 07:40:44
  TRACK 369 AUDIO
    TITLE "0:"
    INDEX 01 07:42:37
  TRACK 370 AUDIO
    TITLE "29:cjc135_3138"
    INDEX 01 07:43:42
  TRACK 371 AUDIO
    TITLE "0:"
    INDEX 01 07:44:46
  TRACK 372 AUDIO
    TITLE "30:cjc135_3139"
    INDEX 01 07:45:20
  TRACK 373 AUDIO
    TITLE "0:"
    INDEX 01 07:47:18
  TRACK 374 AUDIO
    TITLE "31:cjc135_3140"
    INDEX 01 07:47:46
  TRACK 375 AUDIO
    TITLE "0:"
    INDEX 01 07:49:13
  TRACK 376 AUDIO
    TITLE "32:cjc135_3141"
    INDEX 01 07:49:41
  TRACK 377 AUDIO
    TITLE "0:"
    INDEX 01 07:51:08
  TRACK 378 AUDIO
    TITLE "29:cjc135_3142"
    INDEX 01 07:52:08
  TRACK 379 AUDIO
    TITLE "0:"
    INDEX 01 07:53:41
  TRACK 380 AUDIO
    TITLE "30:cjc135_3143"
    INDEX 01 07:54:15
  TRACK 381 AUDIO
    TITLE "0:"
    INDEX 01 07:56:04
  TRACK 382 AUDIO
    TITLE "31:cjc135_3144"
    INDEX 01 07:56:27
  TRACK 383 AUDIO
    TITLE "0:"
    INDEX 01 07:58:38
  TRACK 384 AUDIO
    TITLE "32:cjc135_3145"
    INDEX 01 07:58:65
  TRACK 385 AUDIO
    TITLE "0:"
    INDEX 01 08:01:03
  TRACK 386 AUDIO
    TITLE "29:cjc135_3146"
    INDEX 01 08:02:02
  TRACK 387 AUDIO
    TITLE "0:"
    INDEX 01 08:03:17
  TRACK 388 AUDIO
    TITLE "30:cjc135_3147"
    INDEX 01 08:03:66
  TRACK 389 AUDIO
    TITLE "0:"
    INDEX 01 08:06:51
  TRACK 390 AUDIO
    TITLE "31:cjc135_3148"
    INDEX 01 08:07:00
  TRACK 391 AUDIO
    TITLE "0:"
    INDEX 01 08:09:00
  TRACK 392 AUDIO
    TITLE "32:cjc135_3149"
    INDEX 01 08:09:24
  TRACK 393 AUDIO
    TITLE "0:"
    INDEX 01 08:11:23
  TRACK 394 AUDIO
    TITLE "29:cjc135_3150"
    INDEX 01 08:12:24
  TRACK 395 AUDIO
    TITLE "0:"
    INDEX 01 08:13:41
  TRACK 396 AUDIO
    TITLE "30:cjc135_3151"
    INDEX 01 08:14:15
  TRACK 397 AUDIO
    TITLE "0:"
    INDEX 01 08:16:59
  TRACK 398 AUDIO
    TITLE "31:cjc135_3152"
    INDEX 01 08:17:10
  TRACK 399 AUDIO
    TITLE "0:"
    INDEX 01 08:19:26
  TRACK 400 AUDIO
    TITLE "32:cjc135_3153"
    INDEX 01 08:19:52
  TRACK 401 AUDIO
    TITLE "0:"
    INDEX 01 08:21:70
  TRACK 402 AUDIO
    TITLE "29:cjc135_3154"
    INDEX 01 08:22:70
  TRACK 403 AUDIO
    TITLE "0:"
    INDEX 01 08:24:06
  TRACK 404 AUDIO
    TITLE "30:cjc135_3155"
    INDEX 01 08:24:55
  TRACK 405 AUDIO
    TITLE "0:"
    INDEX 01 08:27:45
  TRACK 406 AUDIO
    TITLE "31:cjc135_3156"
    INDEX 01 08:28:02
  TRACK 407 AUDIO
    TITLE "0:"
    INDEX 01 08:30:22
  TRACK 408 AUDIO
    TITLE "32:cjc135_3157"
    INDEX 01 08:30:54
  TRACK 409 AUDIO
    TITLE "0:"
    INDEX 01 08:32:74
  TRACK 410 AUDIO
    TITLE "29:cjc135_3158"
    INDEX 01 08:34:00
  TRACK 411 AUDIO
    TITLE "0:"
    INDEX 01 08:35:10
  TRACK 412 AUDIO
    TITLE "30:cjc135_3159"
    INDEX 01 08:35:57
  TRACK 413 AUDIO
    TITLE "0:"
    INDEX 01 08:38:24
  TRACK 414 AUDIO
    TITLE "31:cjc135_3160"
    INDEX 01 08:38:47
  TRACK 415 AUDIO
    TITLE "0:"
    INDEX 01 08:40:66
  TRACK 416 AUDIO
    TITLE "32:cjc135_3161"
    INDEX 01 08:41:14
  TRACK 417 AUDIO
    TITLE "0:"
    INDEX 01 08:43:33
  TRACK 418 AUDIO
    TITLE "29:cjc135_3162"
    INDEX 01 08:44:32
  TRACK 419 AUDIO
    TITLE "0:"
    INDEX 01 08:45:37
  TRACK 420 AUDIO
    TITLE "30:cjc135_3163"
    INDEX 01 08:46:09
  TRACK 421 AUDIO
    TITLE "0:"
    INDEX 01 08:47:62
  TRACK 422 AUDIO
    TITLE "31:cjc135_3164"
    INDEX 01 08:48:10
  TRACK 423 AUDIO
    TITLE "0:"
    INDEX 01 08:50:01
  TRACK 424 AUDIO
    TITLE "32:cjc135_3165"
    INDEX 01 08:50:27
  TRACK 425 AUDIO
    TITLE "0:"
    INDEX 01 08:52:18
  TRACK 426 AUDIO
    TITLE "29:cjc135_3166"
    INDEX 01 08:53:19
  TRACK 427 AUDIO
    TITLE "0:"
    INDEX 01 08:54:29
  TRACK 428 AUDIO
    TITLE "30:cjc135_3167"
    INDEX 01 08:55:03
  TRACK 429 AUDIO
    TITLE "0:"
    INDEX 01 08:57:33
  TRACK 430 AUDIO
    TITLE "31:cjc135_3168"
    INDEX 01 08:57:56
  TRACK 431 AUDIO
    TITLE "0:"
    INDEX 01 09:00:02
  TRACK 432 AUDIO
    TITLE "32:cjc135_3169"
    INDEX 01 09:00:27
  TRACK 433 AUDIO
    TITLE "0:"
    INDEX 01 09:02:48
  TRACK 434 AUDIO
    TITLE "29:cjc135_3170"
    INDEX 01 09:03:47
  TRACK 435 AUDIO
    TITLE "0:"
    INDEX 01 09:04:60
  TRACK 436 AUDIO
    TITLE "30:cjc135_3171"
    INDEX 01 09:05:34
  TRACK 437 AUDIO
    TITLE "0:"
    INDEX 01 09:07:63
  TRACK 438 AUDIO
    TITLE "31:cjc135_3172"
    INDEX 01 09:08:09
  TRACK 439 AUDIO
    TITLE "0:"
    INDEX 01 09:09:63
  TRACK 440 AUDIO
    TITLE "32:cjc135_3173"
    INDEX 01 09:10:10
  TRACK 441 AUDIO
    TITLE "0:"
    INDEX 01 09:11:64
  TRACK 442 AUDIO
    TITLE "29:cjc135_3174"
    INDEX 01 09:12:62
  TRACK 443 AUDIO
    TITLE "0:"
    INDEX 01 09:14:04
  TRACK 444 AUDIO
    TITLE "30:cjc135_3175"
    INDEX 01 09:14:55
  TRACK 445 AUDIO
    TITLE "0:"
    INDEX 01 09:17:35
  TRACK 446 AUDIO
    TITLE "31:cjc135_3176"
    INDEX 01 09:17:59
  TRACK 447 AUDIO
    TITLE "0:"
    INDEX 01 09:20:18
  TRACK 448 AUDIO
    TITLE "32:cjc135_3177"
    INDEX 01 09:20:42
  TRACK 449 AUDIO
    TITLE "0:"
    INDEX 01 09:22:74
  TRACK 450 AUDIO
    TITLE "29:cjc135_3178"
    INDEX 01 09:24:00
  TRACK 451 AUDIO
    TITLE "0:"
    INDEX 01 09:25:15
  TRACK 452 AUDIO
    TITLE "30:cjc135_3179"
    INDEX 01 09:25:64
  TRACK 453 AUDIO
    TITLE "0:"
    INDEX 01 09:28:65
  TRACK 454 AUDIO
    TITLE "31:cjc135_3180"
    INDEX 01 09:29:15
  TRACK 455 AUDIO
    TITLE "0:"
    INDEX 01 09:31:71
  TRACK 456 AUDIO
    TITLE "32:cjc135_3181"
    INDEX 01 09:32:19
  TRACK 457 AUDIO
    TITLE "0:"
    INDEX 01 09:35:00
  TRACK 458 AUDIO
    TITLE "29:cjc135_3182"
    INDEX 01 09:36:00
  TRACK 459 AUDIO
    TITLE "0:"
    INDEX 01 09:37:05
  TRACK 460 AUDIO
    TITLE "30:cjc135_3183"
    INDEX 01 09:37:52
  TRACK 461 AUDIO
    TITLE "0:"
    INDEX 01 09:40:11
  TRACK 462 AUDIO
    TITLE "31:cjc135_3184"
    INDEX 01 09:40:35
  TRACK 463 AUDIO
    TITLE "0:"
    INDEX 01 09:42:49
  TRACK 464 AUDIO
    TITLE "32:cjc135_3185"
    INDEX 01 09:42:73
  TRACK 465 AUDIO
    TITLE "0:"
    INDEX 01 09:45:10
  TRACK 466 AUDIO
    TITLE "29:cjc135_3186"
    INDEX 01 09:46:12
  TRACK 467 AUDIO
    TITLE "0:"
    INDEX 01 09:47:07
  TRACK 468 AUDIO
    TITLE "30:cjc135_3187"
    INDEX 01 09:47:58
  TRACK 469 AUDIO
    TITLE "0:"
    INDEX 01 09:49:28
  TRACK 470 AUDIO
    TITLE "31:cjc135_3188"
    INDEX 01 09:49:51
  TRACK 471 AUDIO
    TITLE "0:"
    INDEX 01 09:51:19
  TRACK 472 AUDIO
    TITLE "32:cjc135_3189"
    INDEX 01 09:51:42
  TRACK 473 AUDIO
    TITLE "0:"
    INDEX 01 09:53:10
  TRACK 474 AUDIO
    TITLE "29:cjc135_3190"
    INDEX 01 09:54:07
  TRACK 475 AUDIO
    TITLE "0:"
    INDEX 01 09:55:18
  TRACK 476 AUDIO
    TITLE "30:cjc135_3191"
    INDEX 01 09:55:67
  TRACK 477 AUDIO
    TITLE "0:"
    INDEX 01 09:57:04
  TRACK 478 AUDIO
    TITLE "31:cjc135_3192"
    INDEX 01 09:57:29
  TRACK 479 AUDIO
    TITLE "0:"
    INDEX 01 09:58:66
  TRACK 480 AUDIO
    TITLE "32:cjc135_3193"
    INDEX 01 09:59:16
  TRACK 481 AUDIO
    TITLE "0:"
    INDEX 01 10:00:53
  TRACK 482 AUDIO
    TITLE "29:cjc135_3194"
    INDEX 01 10:01:52
  TRACK 483 AUDIO
    TITLE "0:"
    INDEX 01 10:02:69
  TRACK 484 AUDIO
    TITLE "30:cjc135_3195"
    INDEX 01 10:03:41
  TRACK 485 AUDIO
    TITLE "0:"
    INDEX 01 10:05:50
  TRACK 486 AUDIO
    TITLE "31:cjc135_3196"
    INDEX 01 10:05:74
  TRACK 487 AUDIO
    TITLE "0:"
    INDEX 01 10:08:19
  TRACK 488 AUDIO
    TITLE "32:cjc135_3197"
    INDEX 01 10:08:47
  TRACK 489 AUDIO
    TITLE "0:"
    INDEX 01 10:10:67
  TRACK 490 AUDIO
    TITLE "29:cjc135_3198"
    INDEX 01 10:11:70
  TRACK 491 AUDIO
    TITLE "0:"
    INDEX 01 10:13:07
  TRACK 492 AUDIO
    TITLE "30:cjc135_3199"
    INDEX 01 10:13:56
  TRACK 493 AUDIO
    TITLE "0:"
    INDEX 01 10:15:25
  TRACK 494 AUDIO
    TITLE "31:cjc135_3200"
    INDEX 01 10:15:50
  TRACK 495 AUDIO
    TITLE "0:"
    INDEX 01 10:17:30
  TRACK 496 AUDIO
    TITLE "32:cjc135_3201"
    INDEX 01 10:17:55
  TRACK 497 AUDIO
    TITLE "0:"
    INDEX 01 10:19:35
  TRACK 498 AUDIO
    TITLE "29:cjc135_3202"
    INDEX 01 10:20:34
  TRACK 499 AUDIO
    TITLE "0:"
    INDEX 01 10:21:39
  TRACK 500 AUDIO
    TITLE "30:cjc135_3203"
    INDEX 01 10:22:15
  TRACK 501 AUDIO
    TITLE "0:"
    INDEX 01 10:24:38
  TRACK 502 AUDIO
    TITLE "31:cjc135_3204"
    INDEX 01 10:24:59
  TRACK 503 AUDIO
    TITLE "0:"
    INDEX 01 10:26:46
  TRACK 504 AUDIO
    TITLE "32:cjc135_3205"
    INDEX 01 10:26:70
  TRACK 505 AUDIO
    TITLE "0:"
    INDEX 01 10:28:57
  TRACK 506 AUDIO
    TITLE "29:cjc135_3206"
    INDEX 01 10:29:55
  TRACK 507 AUDIO
    TITLE "0:"
    INDEX 01 10:30:70
  TRACK 508 AUDIO
    TITLE "30:cjc135_3207"
    INDEX 01 10:31:46
  TRACK 509 AUDIO
    TITLE "0:"
    INDEX 01 10:35:51
  TRACK 510 AUDIO
    TITLE "31:cjc135_3208"
    INDEX 01 10:35:73
  TRACK 511 AUDIO
    TITLE "0:"
    INDEX 01 10:38:44
  TRACK 512 AUDIO
    TITLE "32:cjc135_3209"
    INDEX 01 10:38:65
  TRACK 513 AUDIO
    TITLE "0:"
    INDEX 01 10:41:36
  TRACK 514 AUDIO
    TITLE "29:cjc135_3210"
    INDEX 01 10:42:36
  TRACK 515 AUDIO
    TITLE "0:"
    INDEX 01 10:43:41
  TRACK 516 AUDIO
    TITLE "30:cjc135_3211"
    INDEX 01 10:44:15
  TRACK 517 AUDIO
    TITLE "0:"
    INDEX 01 10:46:31
  TRACK 518 AUDIO
    TITLE "31:cjc135_3212"
    INDEX 01 10:46:57
  TRACK 519 AUDIO
    TITLE "0:"
    INDEX 01 10:49:08
  TRACK 520 AUDIO
    TITLE "32:cjc135_3213"
    INDEX 01 10:49:34
  TRACK 521 AUDIO
    TITLE "0:"
    INDEX 01 10:51:62
  TRACK 522 AUDIO
    TITLE "29:cjc135_3214"
    INDEX 01 10:52:61
  TRACK 523 AUDIO
    TITLE "0:"
    INDEX 01 10:53:71
  TRACK 524 AUDIO
    TITLE "30:cjc135_3215"
    INDEX 01 10:54:45
  TRACK 525 AUDIO
    TITLE "0:"
    INDEX 01 10:57:35
  TRACK 526 AUDIO
    TITLE "31:cjc135_3216"
    INDEX 01 10:57:57
  TRACK 527 AUDIO
    TITLE "0:"
    INDEX 01 11:00:14
  TRACK 528 AUDIO
    TITLE "32:cjc135_3217"
    INDEX 01 11:00:37
  TRACK 529 AUDIO
    TITLE "0:"
    INDEX 01 11:02:70
  TRACK 530 AUDIO
    TITLE "29:cjc135_3218"
    INDEX 01 11:03:69
  TRACK 531 AUDIO
    TITLE "0:"
    INDEX 01 11:05:27
  TRACK 532 AUDIO
    TITLE "30:cjc135_3219"
    INDEX 01 11:06:03
  TRACK 533 AUDIO
    TITLE "0:"
    INDEX 01 11:07:69
  TRACK 534 AUDIO
    TITLE "31:cjc135_3220"
    INDEX 01 11:08:17
  TRACK 535 AUDIO
    TITLE "0:"
    INDEX 01 11:10:28
  TRACK 536 AUDIO
    TITLE "32:cjc135_3221"
    INDEX 01 11:10:52
  TRACK 537 AUDIO
    TITLE "0:"
    INDEX 01 11:12:62
  TRACK 538 AUDIO
    TITLE "29:cjc135_3222"
    INDEX 01 11:13:64
  TRACK 539 AUDIO
    TITLE "0:"
    INDEX 01 11:14:63
  TRACK 540 AUDIO
    TITLE "30:cjc135_3223"
    INDEX 01 11:15:39
  TRACK 541 AUDIO
    TITLE "0:"
    INDEX 01 11:17:54
  TRACK 542 AUDIO
    TITLE "31:cjc135_3224"
    INDEX 01 11:18:08
  TRACK 543 AUDIO
    TITLE "0:"
    INDEX 01 11:20:60
  TRACK 544 AUDIO
    TITLE "32:cjc135_3225"
    INDEX 01 11:21:10
  TRACK 545 AUDIO
    TITLE "0:"
    INDEX 01 11:23:62
  TRACK 546 AUDIO
    TITLE "29:cjc135_3226"
    INDEX 01 11:24:61
  TRACK 547 AUDIO
    TITLE "0:"
    INDEX 01 11:26:00
  TRACK 548 AUDIO
    TITLE "30:cjc135_3227"
    INDEX 01 11:26:58
  TRACK 549 AUDIO
    TITLE "0:"
    INDEX 01 11:29:74
  TRACK 550 AUDIO
    TITLE "31:cjc135_3228"
    INDEX 01 11:30:25
  TRACK 551 AUDIO
    TITLE "0:"
    INDEX 01 11:32:65
  TRACK 552 AUDIO
    TITLE "32:cjc135_3229"
    INDEX 01 11:33:15
  TRACK 553 AUDIO
    TITLE "0:"
    INDEX 01 11:35:55
  TRACK 554 AUDIO
    TITLE "29:cjc135_3230"
    INDEX 01 11:36:55
  TRACK 555 AUDIO
    TITLE "0:"
    INDEX 01 11:37:74
  TRACK 556 AUDIO
    TITLE "30:cjc135_3231"
    INDEX 01 11:38:48
  TRACK 557 AUDIO
    TITLE "0:"
    INDEX 01 11:40:37
  TRACK 558 AUDIO
    TITLE "31:cjc135_3232"
    INDEX 01 11:40:60
  TRACK 559 AUDIO
    TITLE "0:"
    INDEX 01 11:42:57
  TRACK 560 AUDIO
    TITLE "32:cjc135_3233"
    INDEX 01 11:43:08
  TRACK 561 AUDIO
    TITLE "0:"
    INDEX 01 11:45:05
  TRACK 562 AUDIO
    TITLE "29:cjc135_3234"
    INDEX 01 11:46:04
  TRACK 563 AUDIO
    TITLE "0:"
    INDEX 01 11:47:12
  TRACK 564 AUDIO
    TITLE "30:cjc135_3235"
    INDEX 01 11:47:63
  TRACK 565 AUDIO
    TITLE "0:"
    INDEX 01 11:49:18
  TRACK 566 AUDIO
    TITLE "31:cjc135_3236"
    INDEX 01 11:49:38
  TRACK 567 AUDIO
    TITLE "0:"
    INDEX 01 11:50:65
  TRACK 568 AUDIO
    TITLE "32:cjc135_3237"
    INDEX 01 11:51:11
  TRACK 569 AUDIO
    TITLE "0:"
    INDEX 01 11:52:36
  TRACK 570 AUDIO
    TITLE "29:cjc135_3238"
    INDEX 01 11:53:38
  TRACK 571 AUDIO
    TITLE "0:"
    INDEX 01 11:54:41
  TRACK 572 AUDIO
    TITLE "30:cjc135_3239"
    INDEX 01 11:55:15
  TRACK 573 AUDIO
    TITLE "0:"
    INDEX 01 11:56:61
  TRACK 574 AUDIO
    TITLE "31:cjc135_3240"
    INDEX 01 11:57:10
  TRACK 575 AUDIO
    TITLE "0:"
    INDEX 01 11:58:53
  TRACK 576 AUDIO
    TITLE "32:cjc135_3241"
    INDEX 01 11:59:01
  TRACK 577 AUDIO
    TITLE "0:"
    INDEX 01 12:00:46
  TRACK 578 AUDIO
    TITLE "29:cjc135_3242"
    INDEX 01 12:01:45
  TRACK 579 AUDIO
    TITLE "0:"
    INDEX 01 12:02:62
  TRACK 580 AUDIO
    TITLE "30:cjc135_3243"
    INDEX 01 12:03:38
  TRACK 581 AUDIO
    TITLE "0:"
    INDEX 01 12:04:59
  TRACK 582 AUDIO
    TITLE "31:cjc135_3244"
    INDEX 01 12:05:08
  TRACK 583 AUDIO
    TITLE "0:"
    INDEX 01 12:07:12
  TRACK 584 AUDIO
    TITLE "32:cjc135_3245"
    INDEX 01 12:07:38
  TRACK 585 AUDIO
    TITLE "0:"
    INDEX 01 12:09:43
  TRACK 586 AUDIO
    TITLE "29:cjc135_3246"
    INDEX 01 12:10:42
  TRACK 587 AUDIO
    TITLE "0:"
    INDEX 01 12:11:47
  TRACK 588 AUDIO
    TITLE "30:cjc135_3247"
    INDEX 01 12:12:21
  TRACK 589 AUDIO
    TITLE "0:"
    INDEX 01 12:15:04
  TRACK 590 AUDIO
    TITLE "31:cjc135_3248"
    INDEX 01 12:15:29
  TRACK 591 AUDIO
    TITLE "0:"
    INDEX 01 12:17:58
  TRACK 592 AUDIO
    TITLE "32:cjc135_3249"
    INDEX 01 12:18:06
  TRACK 593 AUDIO
    TITLE "0:"
    INDEX 01 12:20:35
  TRACK 594 AUDIO
    TITLE "29:cjc135_3250"
    INDEX 01 12:21:34
  TRACK 595 AUDIO
    TITLE "0:"
    INDEX 01 12:22:43
  TRACK 596 AUDIO
    TITLE "30:cjc135_3251"
    INDEX 01 12:23:17
  TRACK 597 AUDIO
    TITLE "0:"
    INDEX 01 12:25:00
  TRACK 598 AUDIO
    TITLE "31:cjc135_3252"
    INDEX 01 12:25:24
  TRACK 599 AUDIO
    TITLE "0:"
    INDEX 01 12:27:07
  TRACK 600 AUDIO
    TITLE "32:cjc135_3253"
    INDEX 01 12:27:33
  TRACK 601 AUDIO
    TITLE "0:"
    INDEX 01 12:29:14
  TRACK 602 AUDIO
    TITLE "29:cjc135_3254"
    INDEX 01 12:30:15
  TRACK 603 AUDIO
    TITLE "0:"
    INDEX 01 12:31:23
  TRACK 604 AUDIO
    TITLE "30:cjc135_3255"
    INDEX 01 12:31:72
  TRACK 605 AUDIO
    TITLE "0:"
    INDEX 01 12:35:30
  TRACK 606 AUDIO
    TITLE "31:cjc135_3256"
    INDEX 01 12:35:56
  TRACK 607 AUDIO
    TITLE "0:"
    INDEX 01 12:38:46
  TRACK 608 AUDIO
    TITLE "32:cjc135_3257"
    INDEX 01 12:38:70
  TRACK 609 AUDIO
    TITLE "0:"
    INDEX 01 12:41:62
  TRACK 610 AUDIO
    TITLE "29:cjc135_3258"
    INDEX 01 12:42:60
  TRACK 611 AUDIO
    TITLE "0:"
    INDEX 01 12:43:53
  TRACK 612 AUDIO
    TITLE "30:cjc135_3259"
    INDEX 01 12:44:27
  TRACK 613 AUDIO
    TITLE "0:"
    INDEX 01 12:45:66
  TRACK 614 AUDIO
    TITLE "31:cjc135_3260"
    INDEX 01 12:46:14
  TRACK 615 AUDIO
    TITLE "0:"
    INDEX 01 12:47:39
  TRACK 616 AUDIO
    TITLE "32:cjc135_3261"
    INDEX 01 12:47:65
  TRACK 617 AUDIO
    TITLE "0:"
    INDEX 01 12:49:15
  TRACK 618 AUDIO
    TITLE "29:cjc135_3262"
    INDEX 01 12:50:14
  TRACK 619 AUDIO
    TITLE "0:"
    INDEX 01 12:51:25
  TRACK 620 AUDIO
    TITLE "30:cjc135_3263"
    INDEX 01 12:51:74
  TRACK 621 AUDIO
    TITLE "0:"
    INDEX 01 12:53:40
  TRACK 622 AUDIO
    TITLE "31:cjc135_3264"
    INDEX 01 12:53:65
  TRACK 623 AUDIO
    TITLE "0:"
    INDEX 01 12:55:39
  TRACK 624 AUDIO
    TITLE "32:cjc135_3265"
    INDEX 01 12:55:64
  TRACK 625 AUDIO
    TITLE "0:"
    INDEX 01 12:57:40
  TRACK 626 AUDIO
    TITLE "29:cjc135_3266"
    INDEX 01 12:58:39
  TRACK 627 AUDIO
    TITLE "0:"
    INDEX 01 12:59:39
  TRACK 628 AUDIO
    TITLE "30:cjc135_3267"
    INDEX 01 13:00:14
  TRACK 629 AUDIO
    TITLE "0:"
    INDEX 01 13:01:73
  TRACK 630 AUDIO
    TITLE "31:cjc135_3268"
    INDEX 01 13:02:21
  TRACK 631 AUDIO
    TITLE "0:"
    INDEX 01 13:03:70
  TRACK 632 AUDIO
    TITLE "32:cjc135_3269"
    INDEX 01 13:04:20
  TRACK 633 AUDIO
    TITLE "0:"
    INDEX 01 13:05:67
  TRACK 634 AUDIO
    TITLE "29:cjc135_3270"
    INDEX 01 13:06:70
  TRACK 635 AUDIO
    TITLE "0:"
    INDEX 01 13:07:63
  TRACK 636 AUDIO
    TITLE "30:cjc135_3271"
    INDEX 01 13:08:37
  TRACK 637 AUDIO
    TITLE "0:"
    INDEX 01 13:10:64
  TRACK 638 AUDIO
    TITLE "31:cjc135_3272"
    INDEX 01 13:11:12
  TRACK 639 AUDIO
    TITLE "0:"
    INDEX 01 13:12:72
  TRACK 640 AUDIO
    TITLE "32:cjc135_3273"
    INDEX 01 13:13:23
  TRACK 641 AUDIO
    TITLE "0:"
    INDEX 01 13:15:06
  TRACK 642 AUDIO
    TITLE "29:cjc135_3274"
    INDEX 01 13:16:08
  TRACK 643 AUDIO
    TITLE "0:"
    INDEX 01 13:17:17
  TRACK 644 AUDIO
    TITLE "30:cjc135_3275"
    INDEX 01 13:17:64
  TRACK 645 AUDIO
    TITLE "0:"
    INDEX 01 13:20:39
  TRACK 646 AUDIO
    TITLE "31:cjc135_3276"
    INDEX 01 13:20:62
  TRACK 647 AUDIO
    TITLE "0:"
    INDEX 01 13:23:33
  TRACK 648 AUDIO
    TITLE "32:cjc135_3277"
    INDEX 01 13:23:61
  TRACK 649 AUDIO
    TITLE "0:"
    INDEX 01 13:26:31
  TRACK 650 AUDIO
    TITLE "29:cjc135_3278"
    INDEX 01 13:27:33
  TRACK 651 AUDIO
    TITLE "0:"
    INDEX 01 13:28:46
  TRACK 652 AUDIO
    TITLE "30:cjc135_3279"
    INDEX 01 13:29:20
  TRACK 653 AUDIO
    TITLE "0:"
    INDEX 01 13:31:50
  TRACK 654 AUDIO
    TITLE "31:cjc135_3280"
    INDEX 01 13:31:74
  TRACK 655 AUDIO
    TITLE "0:"
    INDEX 01 13:34:09
  TRACK 656 AUDIO
    TITLE "32:cjc135_3281"
    INDEX 01 13:34:35
  TRACK 657 AUDIO
    TITLE "0:"
    INDEX 01 13:36:46
  TRACK 658 AUDIO
    TITLE "29:cjc135_3282"
    INDEX 01 13:37:45
  TRACK 659 AUDIO
    TITLE "0:"
    INDEX 01 13:38:64
  TRACK 660 AUDIO
    TITLE "30:cjc135_3283"
    INDEX 01 13:39:38
  TRACK 661 AUDIO
    TITLE "0:"
    INDEX 01 13:41:47
  TRACK 662 AUDIO
    TITLE "31:cjc135_3284"
    INDEX 01 13:41:74
  TRACK 663 AUDIO
    TITLE "0:"
    INDEX 01 13:43:73
  TRACK 664 AUDIO
    TITLE "32:cjc135_3285"
    INDEX 01 13:44:22
  TRACK 665 AUDIO
    TITLE "0:"
    INDEX 01 13:46:20
  TRACK 666 AUDIO
    TITLE "29:cjc135_3286"
    INDEX 01 13:47:20
  TRACK 667 AUDIO
    TITLE "0:"
    INDEX 01 13:48:29
  TRACK 668 AUDIO
    TITLE "30:cjc135_3287"
    INDEX 01 13:49:03
  TRACK 669 AUDIO
    TITLE "0:"
    INDEX 01 13:51:29
  TRACK 670 AUDIO
    TITLE "31:cjc135_3288"
    INDEX 01 13:51:53
  TRACK 671 AUDIO
    TITLE "0:"
    INDEX 01 13:53:54
  TRACK 672 AUDIO
    TITLE "32:cjc135_3289"
    INDEX 01 13:54:04
  TRACK 673 AUDIO
    TITLE "0:"
    INDEX 01 13:56:07
  TRACK 674 AUDIO
    TITLE "29:cjc135_3290"
    INDEX 01 13:57:07
  TRACK 675 AUDIO
    TITLE "0:"
    INDEX 01 13:58:12
  TRACK 676 AUDIO
    TITLE "30:cjc135_3291"
    INDEX 01 13:58:63
  TRACK 677 AUDIO
    TITLE "0:"
    INDEX 01 14:00:44
  TRACK 678 AUDIO
    TITLE "31:cjc135_3292"
    INDEX 01 14:00:70
  TRACK 679 AUDIO
    TITLE "0:"
    INDEX 01 14:02:55
  TRACK 680 AUDIO
    TITLE "32:cjc135_3293"
    INDEX 01 14:03:05
  TRACK 681 AUDIO
    TITLE "0:"
    INDEX 01 14:04:65
  TRACK 682 AUDIO
    TITLE "29:cjc135_3294"
    INDEX 01 14:05:65
  TRACK 683 AUDIO
    TITLE "0:"
    INDEX 01 14:07:01
  TRACK 684 AUDIO
    TITLE "30:cjc135_3295"
    INDEX 01 14:07:50
  TRACK 685 AUDIO
    TITLE "0:"
    INDEX 01 14:10:03
  TRACK 686 AUDIO
    TITLE "31:cjc135_3296"
    INDEX 01 14:10:27
  TRACK 687 AUDIO
    TITLE "0:"
    INDEX 01 14:12:51
  TRACK 688 AUDIO
    TITLE "32:cjc135_3297"
    INDEX 01 14:13:00
  TRACK 689 AUDIO
    TITLE "0:"
    INDEX 01 14:15:24
  TRACK 690 AUDIO
    TITLE "29:cjc135_3298"
    INDEX 01 14:16:22
  TRACK 691 AUDIO
    TITLE "0:"
    INDEX 01 14:17:35
  TRACK 692 AUDIO
    TITLE "30:cjc135_3299"
    INDEX 01 14:18:09
  TRACK 693 AUDIO
    TITLE "0:"
    INDEX 01 14:20:51
  TRACK 694 AUDIO
    TITLE "31:cjc135_3300"
    INDEX 01 14:20:74
  TRACK 695 AUDIO
    TITLE "0:"
    INDEX 01 14:23:00
  TRACK 696 AUDIO
    TITLE "32:cjc135_3301"
    INDEX 01 14:23:26
  TRACK 697 AUDIO
    TITLE "0:"
    INDEX 01 14:25:24
  TRACK 698 AUDIO
    TITLE "29:cjc135_3302"
    INDEX 01 14:26:24
  TRACK 699 AUDIO
    TITLE "0:"
    INDEX 01 14:27:37
  TRACK 700 AUDIO
    TITLE "30:cjc135_3303"
    INDEX 01 14:28:09
  TRACK 701 AUDIO
    TITLE "0:"
    INDEX 01 14:29:59
  TRACK 702 AUDIO
    TITLE "31:cjc135_3304"
    INDEX 01 14:30:08
  TRACK 703 AUDIO
    TITLE "0:"
    INDEX 01 14:31:68
  TRACK 704 AUDIO
    TITLE "32:cjc135_3305"
    INDEX 01 14:32:17
  TRACK 705 AUDIO
    TITLE "0:"
    INDEX 01 14:34:04
  TRACK 706 AUDIO
    TITLE "29:cjc135_3306"
    INDEX 01 14:35:01
  TRACK 707 AUDIO
    TITLE "0:"
    INDEX 01 14:36:14
  TRACK 708 AUDIO
    TITLE "30:cjc135_3307"
    INDEX 01 14:36:65
  TRACK 709 AUDIO
    TITLE "0:"
    INDEX 01 14:38:45
  TRACK 710 AUDIO
    TITLE "31:cjc135_3308"
    INDEX 01 14:39:03
  TRACK 711 AUDIO
    TITLE "0:"
    INDEX 01 14:40:59
  TRACK 712 AUDIO
    TITLE "32:cjc135_3309"
    INDEX 01 14:41:10
  TRACK 713 AUDIO
    TITLE "0:"
    INDEX 01 14:42:66
  TRACK 714 AUDIO
    TITLE "29:cjc135_3310"
    INDEX 01 14:43:67
  TRACK 715 AUDIO
    TITLE "0:"
    INDEX 01 14:45:09
  TRACK 716 AUDIO
    TITLE "30:cjc135_3311"
    INDEX 01 14:45:60
  TRACK 717 AUDIO
    TITLE "0:"
    INDEX 01 14:48:14
  TRACK 718 AUDIO
    TITLE "31:cjc135_3312"
    INDEX 01 14:48:39
  TRACK 719 AUDIO
    TITLE "0:"
    INDEX 01 14:50:54
  TRACK 720 AUDIO
    TITLE "32:cjc135_3313"
    INDEX 01 14:51:04
  TRACK 721 AUDIO
    TITLE "0:"
    INDEX 01 14:53:19
  TRACK 722 AUDIO
    TITLE "29:cjc135_3314"
    INDEX 01 14:54:20
  TRACK 723 AUDIO
    TITLE "0:"
    INDEX 01 14:55:45
  TRACK 724 AUDIO
    TITLE "30:cjc135_3315"
    INDEX 01 14:56:19
  TRACK 725 AUDIO
    TITLE "0:"
    INDEX 01 14:59:00
  TRACK 726 AUDIO
    TITLE "31:cjc135_3316"
    INDEX 01 14:59:25
  TRACK 727 AUDIO
    TITLE "0:"
    INDEX 01 15:01:54
  TRACK 728 AUDIO
    TITLE "32:cjc135_3317"
    INDEX 01 15:02:04
  TRACK 729 AUDIO
    TITLE "0:"
    INDEX 01 15:04:34
  TRACK 730 AUDIO
    TITLE "29:cjc135_3318"
    INDEX 01 15:05:34
  TRACK 731 AUDIO
    TITLE "0:"
    INDEX 01 15:06:37
  TRACK 732 AUDIO
    TITLE "30:cjc135_3319"
    INDEX 01 15:07:17
  TRACK 733 AUDIO
    TITLE "0:"
    INDEX 01 15:09:14
  TRACK 734 AUDIO
    TITLE "31:cjc135_3320"
    INDEX 01 15:09:37
  TRACK 735 AUDIO
    TITLE "0:"
    INDEX 01 15:10:70
  TRACK 736 AUDIO
    TITLE "32:cjc135_3321"
    INDEX 01 15:11:21
  TRACK 737 AUDIO
    TITLE "0:"
    INDEX 01 15:12:53
  TRACK 738 AUDIO
    TITLE "29:cjc135_3322"
    INDEX 01 15:13:53
  TRACK 739 AUDIO
    TITLE "0:"
    INDEX 01 15:14:58
  TRACK 740 AUDIO
    TITLE "30:cjc135_3323"
    INDEX 01 15:15:32
  TRACK 741 AUDIO
    TITLE "0:"
    INDEX 01 15:18:62
  TRACK 742 AUDIO
    TITLE "31:cjc135_3324"
    INDEX 01 15:19:10
  TRACK 743 AUDIO
    TITLE "0:"
    INDEX 01 15:21:60
  TRACK 744 AUDIO
    TITLE "32:cjc135_3325"
    INDEX 01 15:22:09
  TRACK 745 AUDIO
    TITLE "0:"
    INDEX 01 15:24:60
  TRACK 746 AUDIO
    TITLE "29:cjc135_3326"
    INDEX 01 15:25:60
  TRACK 747 AUDIO
    TITLE "0:"
    INDEX 01 15:26:57
  TRACK 748 AUDIO
    TITLE "30:cjc135_3327"
    INDEX 01 15:27:31
  TRACK 749 AUDIO
    TITLE "0:"
    INDEX 01 15:30:16
  TRACK 750 AUDIO
    TITLE "31:cjc135_3328"
    INDEX 01 15:30:40
  TRACK 751 AUDIO
    TITLE "0:"
    INDEX 01 15:33:56
  TRACK 752 AUDIO
    TITLE "32:cjc135_3329"
    INDEX 01 15:34:06
  TRACK 753 AUDIO
    TITLE "0:"
    INDEX 01 15:37:20
  TRACK 754 AUDIO
    TITLE "29:cjc135_3330"
    INDEX 01 15:38:19
  TRACK 755 AUDIO
    TITLE "0:"
    INDEX 01 15:39:09
  TRACK 756 AUDIO
    TITLE "30:cjc135_3331"
    INDEX 01 15:39:60
  TRACK 757 AUDIO
    TITLE "0:"
    INDEX 01 15:42:09
  TRACK 758 AUDIO
    TITLE "31:cjc135_3332"
    INDEX 01 15:42:37
  TRACK 759 AUDIO
    TITLE "0:"
    INDEX 01 15:44:46
  TRACK 760 AUDIO
    TITLE "32:cjc135_3333"
    INDEX 01 15:44:69
  TRACK 761 AUDIO
    TITLE "0:"
    INDEX 01 15:47:03
  TRACK 762 AUDIO
    TITLE "29:cjc135_3334"
    INDEX 01 15:48:02
  TRACK 763 AUDIO
    TITLE "0:"
    INDEX 01 15:49:11
  TRACK 764 AUDIO
    TITLE "30:cjc135_3335"
    INDEX 01 15:49:60
  TRACK 765 AUDIO
    TITLE "0:"
    INDEX 01 15:52:14
  TRACK 766 AUDIO
    TITLE "31:cjc135_3336"
    INDEX 01 15:52:37
  TRACK 767 AUDIO
    TITLE "0:"
    INDEX 01 15:54:26
  TRACK 768 AUDIO
    TITLE "32:cjc135_3337"
    INDEX 01 15:54:48
  TRACK 769 AUDIO
    TITLE "0:"
    INDEX 01 15:56:39
  TRACK 770 AUDIO
    TITLE "29:cjc135_3338"
    INDEX 01 15:57:36
  TRACK 771 AUDIO
    TITLE "0:"
    INDEX 01 15:58:38
  TRACK 772 AUDIO
    TITLE "30:cjc135_3339"
    INDEX 01 15:59:12
  TRACK 773 AUDIO
    TITLE "0:"
    INDEX 01 16:01:73
  TRACK 774 AUDIO
    TITLE "31:cjc135_3340"
    INDEX 01 16:02:22
  TRACK 775 AUDIO
    TITLE "0:"
    INDEX 01 16:04:31
  TRACK 776 AUDIO
    TITLE "32:cjc135_3341"
    INDEX 01 16:04:58
  TRACK 777 AUDIO
    TITLE "0:"
    INDEX 01 16:06:67
  TRACK 778 AUDIO
    TITLE "29:cjc135_3342"
    INDEX 01 16:07:66
  TRACK 779 AUDIO
    TITLE "0:"
    INDEX 01 16:09:10
  TRACK 780 AUDIO
    TITLE "30:cjc135_3343"
    INDEX 01 16:09:59
  TRACK 781 AUDIO
    TITLE "0:"
    INDEX 01 16:12:26
  TRACK 782 AUDIO
    TITLE "31:cjc135_3344"
    INDEX 01 16:12:56
  TRACK 783 AUDIO
    TITLE "0:"
    INDEX 01 16:14:56
  TRACK 784 AUDIO
    TITLE "32:cjc135_3345"
    INDEX 01 16:15:11
  TRACK 785 AUDIO
    TITLE "0:"
    INDEX 01 16:17:12
  TRACK 786 AUDIO
    TITLE "29:cjc135_3346"
    INDEX 01 16:18:11
  TRACK 787 AUDIO
    TITLE "0:"
    INDEX 01 16:19:05
  TRACK 788 AUDIO
    TITLE "30:cjc135_3347"
    INDEX 01 16:19:52
  TRACK 789 AUDIO
    TITLE "0:"
    INDEX 01 16:21:68
  TRACK 790 AUDIO
    TITLE "31:cjc135_3348"
    INDEX 01 16:22:15
  TRACK 791 AUDIO
    TITLE "0:"
    INDEX 01 16:24:10
  TRACK 792 AUDIO
    TITLE "32:cjc135_3349"
    INDEX 01 16:24:31
  TRACK 793 AUDIO
    TITLE "0:"
    INDEX 01 16:26:24
  TRACK 794 AUDIO
    TITLE "29:cjc135_3350"
    INDEX 01 16:27:22
  TRACK 795 AUDIO
    TITLE "0:"
    INDEX 01 16:28:19
  TRACK 796 AUDIO
    TITLE "30:cjc135_3351"
    INDEX 01 16:28:70
  TRACK 797 AUDIO
    TITLE "0:"
    INDEX 01 16:31:22
  TRACK 798 AUDIO
    TITLE "31:cjc135_3352"
    INDEX 01 16:31:47
  TRACK 799 AUDIO
    TITLE "0:"
    INDEX 01 16:33:05
  TRACK 800 AUDIO
    TITLE "32:cjc135_3353"
    INDEX 01 16:33:26
  TRACK 801 AUDIO
    TITLE "0:"
    INDEX 01 16:34:59
